<svg width="129" height="100" viewBox="0 0 129 100" fill="none" xmlns="http://www.w3.org/2000/svg">
<g clip-path="url(#clip0_13_958)">
<path d="M23.7967 51.3629H16.2112V14.3911H34.8652V21.9441H23.7967V29.0857H34.8652V36.6388H23.7967V51.3629Z" fill="#1E1E1E"/>
<path d="M45.9336 43.7805H53.1059V21.9441H45.9336V43.7805ZM42.0375 51.3629V47.6599H38.348V18.0648H42.0375V14.3911H57.002V18.0648H60.6915V47.6599H57.002V51.3629H42.0375ZM38.5546 14.5086H42.0375V18.0648H38.5546V14.5086ZM57.002 14.391H60.6915V18.0646H57.002V14.391ZM57.002 47.6598H60.6915V51.2453H57.002V47.6598ZM38.348 47.6598H42.0375V51.3628H38.348V47.6598Z" fill="#1E1E1E"/>
<path d="M82.8283 51.3629H64.1743V43.7804H78.9322V36.6388H67.8638V32.9652H64.1743V18.0647H67.8638V14.3911H86.5178V21.9441H71.7599V29.0857H82.8283V32.7594H86.5178V47.6599H82.8283V51.3629ZM64.3809 14.5086H67.8638V18.0647H64.3809V14.5086ZM64.1743 32.9652H67.8638V36.6388H64.1743V32.9652ZM82.8283 29.0857H86.5178V32.7594H82.8283V29.0857ZM82.8283 47.6599H86.5178V51.2454H82.8283V47.6599Z" fill="#1E1E1E"/>
<path d="M108.655 51.3629H90.0007V43.7804H104.759V36.6388H93.6902V32.9652H90.0007V18.0647H93.6902V14.3911H112.344V21.9441H97.5863V29.0857H108.655V32.7594H112.344V47.6599H108.655V51.3629ZM90.2073 14.5086H93.6902V18.0647H90.2073V14.5086ZM90.0007 32.9652H93.6902V36.6388H90.0007V32.9652ZM108.655 29.0857H112.344V32.7594H108.655V29.0857ZM108.655 47.6599H112.344V51.2454H108.655V47.6599Z" fill="#1E1E1E"/>
<path d="M18.8757 85.1383V82.4577H16.2094V58.3754H21.6914V79.6495H26.8747V58.3754H32.3566V82.4577H29.6903V85.1383H18.8757ZM16.2094 82.4577H18.8757V85.1383H16.2094V82.4577ZM29.6903 82.4577H32.3566V85.0532H29.6903V82.4577Z" fill="#1E1E1E"/>
<path d="M40.3556 85.1383H34.8737V58.3754H51.0209V85.1383H45.5389V63.8428H40.3556V85.1383Z" fill="#1E1E1E"/>
<path d="M59.0197 85.1383H53.5378V58.3754H59.0197V85.1383Z" fill="#1E1E1E"/>
<path d="M72.3512 85.1383H66.8693V63.8428H61.5367V58.3754H77.6839V63.8428H72.3512V85.1383Z" fill="#1E1E1E"/>
<path d="M93.6818 85.1383H80.2009V58.3754H93.6818V63.8428H85.6829V69.0124H93.6818V74.4799H85.6829V79.6495H93.6818V85.1383Z" fill="#1E1E1E"/>
<path d="M101.681 79.6495H106.864V63.8428H101.681V79.6495ZM96.1989 85.1383V58.3754H109.68V61.0346H112.346V82.4577H109.68V85.1383H96.1989Z" fill="#1E1E1E"/>
<path d="M125.43 2.79108H3.12549V96.7383H125.43V2.79108Z" stroke="#1E1E1E" stroke-width="6.75761"/>
</g>
<defs>
<clipPath id="clip0_13_958">
<rect width="128.947" height="100" fill="white"/>
</clipPath>
</defs>
</svg>
